HIERARCHY
ROOT root
{
	OFFSET	0	13.1	24.9
	CHANNELS 6  Xposition Yposition Zposition Xrotation Yrotation Zrotation
	JOINT spine_1
	{
		OFFSET	0	9.99999	0
		CHANNELS 3  Xrotation Yrotation Zrotation
		JOINT spine_2
		{
			OFFSET	0	112	-10
			CHANNELS 3  Xrotation Yrotation Zrotation
			JOINT spine_3
			{
				OFFSET	0	206.5	19.3
				CHANNELS 3  Xrotation Yrotation Zrotation
				JOINT spine_4
				{
					OFFSET	0	110.4	14.6
					CHANNELS 3  Xrotation Yrotation Zrotation
					JOINT neck_1
					{
						OFFSET	0	71.8	-50.3
						CHANNELS 3  Xrotation Yrotation Zrotation
						JOINT neck_2
						{
							OFFSET	0	86.2	-25.8
							CHANNELS 3  Xrotation Yrotation Zrotation
							JOINT head_ee
							{
								OFFSET	0	179.8	-8.7
								CHANNELS 3  Xrotation Yrotation Zrotation
								End Site
								{
									OFFSET	1	0	0
								}
							}
						}
					}
					JOINT left_clavicle
					{
						OFFSET	-43.2	22.4	-70.8
						CHANNELS 3  Xrotation Yrotation Zrotation
						JOINT left_shoulder
						{
							OFFSET	-93.9	-5.79999	48.7
							CHANNELS 3  Xrotation Yrotation Zrotation
							JOINT left_elbow
							{
								OFFSET	-291.4	-30.8	15.2
								CHANNELS 3  Xrotation Yrotation Zrotation
								JOINT left_lowarm_twist
								{
									OFFSET	-110.7	-3.89999	13.6
									CHANNELS 3  Xrotation Yrotation Zrotation
									JOINT left_hand
									{
										OFFSET	-110.7	-3.89999	13.6
										CHANNELS 3  Xrotation Yrotation Zrotation
										JOINT left_ee
										{
											OFFSET	-80.8	-5.10001	12.1
											CHANNELS 3  Xrotation Yrotation Zrotation
											End Site
											{
												OFFSET	1	0	0
											}
										}
									}
								}
							}
						}
					}
					JOINT right_clavicle
					{
						OFFSET	43.2	22.4	-70.8
						CHANNELS 3  Xrotation Yrotation Zrotation
						JOINT right_shoulder
						{
							OFFSET	93.9	-5.79999	48.7
							CHANNELS 3  Xrotation Yrotation Zrotation
							JOINT right_elbow
							{
								OFFSET	291.4	-30.8	15.2
								CHANNELS 3  Xrotation Yrotation Zrotation
								JOINT right_lowarm_twist
								{
									OFFSET	110.7	-3.89999	13.6
									CHANNELS 3  Xrotation Yrotation Zrotation
									JOINT right_hand
									{
										OFFSET	110.7	-3.89999	13.6
										CHANNELS 3  Xrotation Yrotation Zrotation
										JOINT right_ee
										{
											OFFSET	80.8	-5.10001	12.1
											CHANNELS 3  Xrotation Yrotation Zrotation
											End Site
											{
												OFFSET	1	0	0
											}
										}
									}
								}
							}
						}
					}
				}
			}
		}
	}
	JOINT left_hip
	{
		OFFSET	-82.8	-127.5	0.300001
		CHANNELS 3  Xrotation Yrotation Zrotation
		JOINT left_knee
		{
			OFFSET	-28.2	-396.7	2.2
			CHANNELS 3  Xrotation Yrotation Zrotation
			JOINT left_ankle
			{
				OFFSET	-11.7	-411.3	35.4
				CHANNELS 3  Xrotation Yrotation Zrotation
				JOINT left_toes
				{
					OFFSET	0	-60	-88.6
					CHANNELS 3  Xrotation Yrotation Zrotation
					JOINT left_foot_ee
					{
						OFFSET	-22.5	-16.5	-42.2
						CHANNELS 3  Xrotation Yrotation Zrotation
						End Site
						{
							OFFSET	1	0	0
						}
					}
				}
			}
		}
	}
	JOINT right_hip
	{
		OFFSET	82.8	-127.5	0.300001
		CHANNELS 3  Xrotation Yrotation Zrotation
		JOINT right_knee
		{
			OFFSET	28.2	-396.7	2.2
			CHANNELS 3  Xrotation Yrotation Zrotation
			JOINT right_ankle
			{
				OFFSET	11.7	-411.3	35.4
				CHANNELS 3  Xrotation Yrotation Zrotation
				JOINT right_toes
				{
					OFFSET	0	-60	-88.6
					CHANNELS 3  Xrotation Yrotation Zrotation
					JOINT right_foot_ee
					{
						OFFSET	22.5	-16.5	-42.2
						CHANNELS 3  Xrotation Yrotation Zrotation
						End Site
						{
							OFFSET	1	0	0
						}
					}
				}
			}
		}
	}
}
MOTION
Frames: 11
Frame Time: 0.02
854.222 680.162 -607.051 -8.43162 -76.4104 -0.669071 1.35609 -1.16819 -5.17025 1.37056 -0.837293 -5.23387 1.44986 0.146635 -5.29821 1.41137 -0.690781 -5.25515 -14.8654 -0.975631 4.39767 -14.8282 -4.48893 3.83971 -0.0 0.0 -0.0 10.9812 -21.4696 21.5002 12.6651 -27.3453 63.6141 2.45026 -50.5082 1.15597 -9.69831 -0.44088 1.15741 -0.985314 -14.5137 -12.8877 -0.0 0.0 -0.0 -4.47149 -20.4555 4.1542 -21.2691 7.2002 -70.128 0.769784 20.8732 -0.141792 64.5726 2.19749 7.51317 3.77911 -4.64312 -27.9838 0.0 0.0 0.0 -31.2674 -34.4872 -14.8974 4.21251 -0.196251 -0.616389 27.3586 27.5125 -3.85626 33.1344 -0.0 -0.0 -0.0 0.0 -0.0 27.0894 -35.2427 -0.302638 -11.2135 -0.29687 -1.69255 7.1643 7.07095 1.06481 -35.7075 0.0 0.0 0.0 0.0 0.0 
870.23 684.134 -605.416 -6.99998 -76.1573 0.518751 1.22661 -1.179 -5.28272 1.24174 -0.840949 -5.34678 1.32369 0.175933 -5.40947 1.28352 -0.679343 -5.36964 -14.9605 -0.132962 3.65963 -14.9279 -2.43178 3.41519 -0.0 0.0 -0.0 11.0181 -20.4205 21.6649 12.3225 -27.3659 64.6595 2.30415 -48.7712 1.04462 -10.0386 -0.459875 1.19658 -0.945308 -15.7894 -13.1486 -0.0 0.0 -0.0 -5.00094 -19.6222 5.15118 -21.0238 7.7231 -71.1747 0.881533 23.5899 -0.184085 62.4118 1.99329 7.32586 3.83282 -7.86457 -29.5328 0.0 0.0 0.0 -31.6884 -35.311 -14.1485 3.12484 -0.141236 -0.458615 23.2134 26.4044 -3.31158 38.9121 -0.0 -0.0 -0.0 0.0 -0.0 26.4903 -35.7545 0.0309122 -11.8401 -0.303623 -1.78846 7.21776 5.81234 1.06648 -37.099 0.0 0.0 0.0 0.0 0.0 
879.483 684.395 -601.505 -7.72156 -75.5732 0.0620946 1.27651 -0.955133 -5.28381 1.29182 -0.617465 -5.33368 1.35219 0.391304 -5.35496 1.31249 -0.45808 -5.34968 -14.2727 -1.06082 4.32529 -14.2367 -4.64862 3.76637 -0.0 0.0 -0.0 10.5207 -23.4543 20.2873 12.0044 -27.2878 65.0411 2.30899 -48.8307 1.04826 -8.06237 -0.352837 0.967588 -1.29476 -15.4884 -15.4349 -0.0 0.0 -0.0 -4.92545 -19.5422 5.05749 -20.5207 7.86902 -71.1602 0.868281 23.2733 -0.178815 61.5262 1.91167 7.2469 3.25196 -7.69106 -25.1783 0.0 0.0 0.0 -31.0605 -35.1224 -14.4228 1.68501 -0.0730459 -0.248238 25.157 24.7046 -3.52167 38.1371 -0.0 -0.0 -0.0 0.0 -0.0 26.8619 -35.5615 0.214475 -14.5263 -0.320673 -2.20021 9.74208 5.62279 1.42546 -38.8376 0.0 0.0 0.0 0.0 0.0 
895.658 684.701 -596.344 -7.93399 -74.8893 -0.457153 1.2401 -1.09898 -5.219 1.25492 -0.765126 -5.27812 1.32864 0.237386 -5.32787 1.28956 -0.605823 -5.29871 -13.848 -0.0384885 3.97531 -13.808 -2.51321 3.76756 -0.0 0.0 -0.0 10.7528 -23.2741 20.8274 10.9171 -27.1746 64.5019 2.18095 -47.2064 0.953071 -8.40596 -0.370877 1.00766 -0.507197 -13.4299 -9.15716 -0.0 0.0 -0.0 -4.56485 -19.0863 4.62362 -20.3435 8.75798 -70.1889 0.784844 21.2454 -0.147204 63.5647 2.10136 7.42676 3.61251 -1.86292 -25.6826 0.0 0.0 0.0 -30.2051 -35.588 -14.4329 -1.17833 0.0467219 0.174792 27.189 26.6157 -3.8131 38.4863 -0.0 -0.0 -0.0 0.0 -0.0 25.5957 -35.1218 -0.101886 -13.9232 -0.318526 -2.10771 9.6758 5.53424 1.41559 -39.1912 0.0 0.0 0.0 0.0 0.0 
910.856 690.669 -592.931 -6.87439 -73.5595 0.632788 1.22603 -1.00319 -5.24289 1.24106 -0.668018 -5.29589 1.30597 0.338646 -5.32702 1.26675 -0.505689 -5.3138 -13.7843 -0.619956 4.36761 -13.7412 -3.86709 3.96276 -0.0 0.0 -0.0 10.7937 -24.3517 20.817 9.34926 -27.3588 64.3711 2.07781 -45.8213 0.878237 -8.94068 -0.399431 1.06981 -0.450709 -17.7128 -10.5798 -0.0 0.0 -0.0 -3.9276 -18.9083 3.69727 -19.4892 8.68728 -70.224 0.656335 18.0109 -0.104019 61.8225 1.93884 7.27346 2.82676 -1.90286 -20.0041 0.0 0.0 0.0 -28.8549 -36.4514 -14.8081 -4.59875 0.161839 0.687026 24.9625 27.5361 -3.55891 40.1756 -0.0 -0.0 -0.0 0.0 -0.0 23.3034 -33.8063 -1.34462 -12.668 -0.310935 -1.91528 12.2608 1.69664 1.75234 -40.1404 0.0 0.0 0.0 0.0 0.0 
919.385 692.69 -590.105 -6.30711 -72.5686 1.3396 1.23209 -0.95236 -5.26971 1.24732 -0.615591 -5.31944 1.30754 0.394655 -5.34031 1.26805 -0.452469 -5.33574 -13.3104 -1.01795 5.3618 -13.2472 -5.27711 4.80913 -0.0 0.0 -0.0 10.5425 -24.8087 20.2051 8.21094 -27.4757 65.5621 2.13755 -46.6322 0.921371 -8.62125 -0.382303 1.03271 -0.10469 -14.6202 -6.93157 -0.0 0.0 -0.0 -3.82929 -18.5259 3.63208 -18.2092 10.1276 -69.7503 0.655773 17.9965 -0.103845 61.7761 1.93457 7.26931 2.11125 -1.23211 -14.7415 0.0 0.0 0.0 -26.4407 -37.2 -15.0788 -10.2681 0.284698 1.54801 29.5678 26.0888 -4.08423 39.9608 -0.0 -0.0 -0.0 0.0 -0.0 21.7007 -32.7272 -2.07546 -12.4853 -0.309479 -1.88728 13.1146 0.964513 1.86426 -40.1257 0.0 0.0 0.0 0.0 0.0 
934.003 690.212 -585.741 -6.03874 -71.667 1.69317 1.23554 -0.988292 -5.2914 1.25087 -0.650077 -5.34336 1.31463 0.364474 -5.37033 1.27474 -0.486993 -5.36063 -13.7573 -2.42557 5.42326 -13.7193 -7.95921 4.4113 -0.0 0.0 -0.0 10.3176 -25.1876 19.6608 7.51148 -27.4434 65.8136 2.13614 -46.6133 0.920348 -8.6911 -0.386031 1.04083 0.156164 -11.6082 -3.88299 -0.0 0.0 -0.0 -3.83767 -19.9501 3.33123 -17.9095 13.3147 -68.3754 0.718424 19.59 -0.12403 61.5862 1.91716 7.2523 1.4821 0.425933 -9.77848 0.0 0.0 0.0 -24.3161 -37.292 -14.4128 -14.8329 0.321391 2.24724 33.3035 25.7017 -4.49842 39.9749 -0.0 -0.0 -0.0 0.0 -0.0 20.0304 -30.1494 -3.0616 -13.282 -0.315175 -2.00938 19.4288 3.73348 2.70838 -39.1719 0.0 0.0 0.0 0.0 0.0 
957.96 694.125 -578.698 -2.85272 -70.0688 5.07772 1.07999 -1.09878 -5.30283 1.09531 -0.759621 -5.36176 1.17041 0.27351 -5.40826 1.13009 -0.582789 -5.38379 -12.4888 -3.19578 6.63642 -12.4222 -10.2891 5.44755 -0.0 0.0 -0.0 10.0966 -25.844 19.0967 5.26869 -27.5037 66.4282 2.07481 -45.78 0.876086 -9.29463 -0.418651 1.1108 0.0407708 -11.9387 -4.8043 -0.0 0.0 -0.0 -3.83224 -18.4195 3.65992 -16.7873 11.0002 -70.2754 0.664605 18.223 -0.10659 60.0896 1.78192 7.11619 0.147013 0.440929 -0.796896 0.0 0.0 0.0 -23.0231 -36.0461 -14.4082 -20.4433 0.290106 3.10715 35.847 26.1995 -4.78748 39.5511 -0.0 -0.0 -0.0 0.0 -0.0 16.1944 -28.597 -4.48759 -13.8221 -0.31807 -2.0922 20.6095 4.65197 2.86548 -39.1795 0.0 0.0 0.0 0.0 0.0 
971.123 694.045 -576.099 -1.93364 -69.8755 6.19975 1.02175 -0.936522 -5.31677 1.03727 -0.596804 -5.3654 1.09716 0.441668 -5.38034 1.05702 -0.412335 -5.38266 -12.0518 -3.01453 5.09696 -12.0187 -8.99353 4.05367 -0.0 0.0 -0.0 10.2019 -27.3232 19.1689 4.11414 -27.6632 66.7175 1.93901 -43.8419 0.780364 -11.2006 -0.526486 1.32947 0.378424 -11.9803 -2.54165 -0.0 0.0 -0.0 -3.63426 -16.66 3.73146 -16.3296 10.5946 -70.1001 0.675252 18.4952 -0.109944 60.1968 1.79148 7.12605 -0.556042 -2.20279 2.76446 0.0 0.0 0.0 -22.7726 -36.8759 -14.3364 -23.2067 0.243795 3.52862 37.1919 26.1707 -4.92671 38.9109 -0.0 -0.0 -0.0 0.0 -0.0 14.0114 -27.3406 -5.65984 -13.6127 -0.31704 -2.06009 24.4149 8.13352 3.37475 -39.3384 0.0 0.0 0.0 0.0 0.0 
981.241 692.204 -573.487 -1.25402 -68.7725 7.2925 0.947529 -1.04167 -5.35889 0.963226 -0.699076 -5.41409 1.03386 0.356221 -5.4473 0.992833 -0.507246 -5.43535 -13.834 -4.73033 5.31991 -13.8641 -12.2799 3.58257 -0.0 0.0 -0.0 9.17437 -27.9146 16.8128 5.23991 -28.1794 68.5376 1.7837 -41.4597 0.675113 -9.9393 -0.454308 1.18516 0.29061 -10.5739 -2.53252 -0.0 0.0 -0.0 -3.63133 -13.8039 4.32702 -14.1334 10.9538 -69.9715 0.655169 17.981 -0.103658 59.5943 1.73794 7.07038 -0.803336 -0.455807 5.17286 0.0 0.0 0.0 -22.4706 -37.222 -15.7931 -23.4531 0.238679 3.56608 39.1986 25.4084 -5.10346 39.8529 -0.0 -0.0 -0.0 0.0 -0.0 12.7883 -24.8113 -6.72916 -14.1717 -0.319528 -2.14582 27.1515 7.51521 3.68417 -38.8472 0.0 0.0 0.0 0.0 0.0 
998.522 693.523 -571.659 0.371256 -68.0496 9.42761 0.793883 -1.03807 -5.56251 0.810828 -0.682582 -5.61705 0.883318 0.426558 -5.64219 0.839229 -0.46842 -5.63888 -12.4195 -5.18603 5.65834 -12.4296 -13.4456 3.93187 -0.0 0.0 -0.0 7.89607 -25.7979 14.2169 5.78929 -29.1567 72.1307 1.69505 -40.0161 0.617257 -12.0047 -0.574159 1.42064 0.520602 -9.07402 -0.338714 -0.0 0.0 -0.0 -3.61603 -12.5784 4.5557 -13.8184 11.0729 -69.9903 0.629591 17.3218 -0.0959021 60.972 1.86122 7.19686 -1.62947 -3.70702 9.24068 0.0 0.0 0.0 -21.2581 -35.6542 -16.1834 -25.8541 0.180408 3.92992 36.2763 25.1655 -4.80079 39.8167 -0.0 -0.0 -0.0 0.0 -0.0 11.7508 -23.3565 -7.37548 -16.8172 -0.319953 -2.55168 31.6053 9.79316 4.21454 -39.4094 0.0 0.0 0.0 0.0 0.0 
